<svg xmlns="http://www.w3.org/2000/svg" xmlns:xlink="http://www.w3.org/1999/xlink" contentStyleType="text/css" height="527px" preserveAspectRatio="none" style="width:854px;height:527px;background:#FFFFFF;" version="1.1" viewBox="0 0 854 527" width="854px" zoomAndPan="magnify"><defs/><g><rect fill="#FFFFFF" height="207.9297" style="stroke:#181818;stroke-width:1.0;" width="10" x="278.2905" y="133.5625"/><rect fill="#FFFFFF" height="29.1328" style="stroke:#181818;stroke-width:1.0;" width="10" x="399.3569" y="162.6953"/><rect fill="#FFFFFF" height="82.3984" style="stroke:#181818;stroke-width:1.0;" width="10" x="399.3569" y="341.4922"/><rect fill="none" height="106.5313" style="stroke:#000000;stroke-width:1.5;" width="618.748" x="229.3809" y="206.8281"/><rect fill="none" height="75.3984" style="stroke:#000000;stroke-width:1.5;" width="598.748" x="239.3809" y="230.9609"/><rect fill="none" height="75.3984" style="stroke:#000000;stroke-width:1.5;" width="497.2598" x="340.8691" y="356.4922"/><line style="stroke:#181818;stroke-width:0.5;stroke-dasharray:5.0,5.0;" x1="140" x2="140" y1="67.2969" y2="448.8906"/><line style="stroke:#181818;stroke-width:0.5;stroke-dasharray:5.0,5.0;" x1="282.3809" x2="282.3809" y1="67.2969" y2="448.8906"/><line style="stroke:#181818;stroke-width:0.5;stroke-dasharray:5.0,5.0;" x1="403.8691" x2="403.8691" y1="67.2969" y2="448.8906"/><line style="stroke:#181818;stroke-width:0.5;stroke-dasharray:5.0,5.0;" x1="549.9351" x2="549.9351" y1="67.2969" y2="448.8906"/><line style="stroke:#181818;stroke-width:0.5;stroke-dasharray:5.0,5.0;" x1="710.8691" x2="710.8691" y1="67.2969" y2="448.8906"/><line style="stroke:#181818;stroke-width:0.5;stroke-dasharray:5.0,5.0;" x1="792.2012" x2="792.2012" y1="67.2969" y2="448.8906"/><text fill="#000000" font-family="sans-serif" font-size="14" lengthAdjust="spacing" textLength="35.3691" x="120" y="63.9951">CrUX</text><path d="M122.6846,15 C122.6846,5 140.6846,5 140.6846,5 C140.6846,5 158.6846,5 158.6846,15 L158.6846,41 C158.6846,51 140.6846,51 140.6846,51 C140.6846,51 122.6846,51 122.6846,41 L122.6846,15 " fill="#E2E2F0" style="stroke:#181818;stroke-width:1.5;"/><path d="M122.6846,15 C122.6846,25 140.6846,25 140.6846,25 C140.6846,25 158.6846,25 158.6846,15 " fill="none" style="stroke:#181818;stroke-width:1.5;"/><text fill="#000000" font-family="sans-serif" font-size="14" lengthAdjust="spacing" textLength="35.3691" x="120" y="460.8857">CrUX</text><path d="M122.6846,474.1875 C122.6846,464.1875 140.6846,464.1875 140.6846,464.1875 C140.6846,464.1875 158.6846,464.1875 158.6846,474.1875 L158.6846,500.1875 C158.6846,510.1875 140.6846,510.1875 140.6846,510.1875 C140.6846,510.1875 122.6846,510.1875 122.6846,500.1875 L122.6846,474.1875 " fill="#E2E2F0" style="stroke:#181818;stroke-width:1.5;"/><path d="M122.6846,474.1875 C122.6846,484.1875 140.6846,484.1875 140.6846,484.1875 C140.6846,484.1875 158.6846,484.1875 158.6846,474.1875 " fill="none" style="stroke:#181818;stroke-width:1.5;"/><rect fill="#E2E2F0" height="30.2969" rx="2.5" ry="2.5" style="stroke:#181818;stroke-width:0.5;" width="67.8193" x="249.3809" y="36"/><text fill="#000000" font-family="sans-serif" font-size="14" lengthAdjust="spacing" textLength="53.8193" x="256.3809" y="55.9951">Crawler</text><rect fill="#E2E2F0" height="30.2969" rx="2.5" ry="2.5" style="stroke:#181818;stroke-width:0.5;" width="67.8193" x="249.3809" y="447.8906"/><text fill="#000000" font-family="sans-serif" font-size="14" lengthAdjust="spacing" textLength="53.8193" x="256.3809" y="467.8857">Crawler</text><rect fill="#E2E2F0" height="30.2969" rx="2.5" ry="2.5" style="stroke:#181818;stroke-width:0.5;" width="106.9756" x="350.8691" y="36"/><text fill="#000000" font-family="sans-serif" font-size="14" lengthAdjust="spacing" textLength="92.9756" x="357.8691" y="55.9951">Data Pipeline</text><rect fill="#E2E2F0" height="30.2969" rx="2.5" ry="2.5" style="stroke:#181818;stroke-width:0.5;" width="106.9756" x="350.8691" y="447.8906"/><text fill="#000000" font-family="sans-serif" font-size="14" lengthAdjust="spacing" textLength="92.9756" x="357.8691" y="467.8857">Data Pipeline</text><text fill="#000000" font-family="sans-serif" font-size="14" lengthAdjust="spacing" textLength="99.2168" x="497.9351" y="63.9951">Cloud Storage</text><path d="M532.5435,15 C532.5435,5 550.5435,5 550.5435,5 C550.5435,5 568.5435,5 568.5435,15 L568.5435,41 C568.5435,51 550.5435,51 550.5435,51 C550.5435,51 532.5435,51 532.5435,41 L532.5435,15 " fill="#E2E2F0" style="stroke:#181818;stroke-width:1.5;"/><path d="M532.5435,15 C532.5435,25 550.5435,25 550.5435,25 C550.5435,25 568.5435,25 568.5435,15 " fill="none" style="stroke:#181818;stroke-width:1.5;"/><text fill="#000000" font-family="sans-serif" font-size="14" lengthAdjust="spacing" textLength="99.2168" x="497.9351" y="460.8857">Cloud Storage</text><path d="M532.5435,474.1875 C532.5435,464.1875 550.5435,464.1875 550.5435,464.1875 C550.5435,464.1875 568.5435,464.1875 568.5435,474.1875 L568.5435,500.1875 C568.5435,510.1875 550.5435,510.1875 550.5435,510.1875 C550.5435,510.1875 532.5435,510.1875 532.5435,500.1875 L532.5435,474.1875 " fill="#E2E2F0" style="stroke:#181818;stroke-width:1.5;"/><path d="M532.5435,474.1875 C532.5435,484.1875 550.5435,484.1875 550.5435,484.1875 C550.5435,484.1875 568.5435,484.1875 568.5435,474.1875 " fill="none" style="stroke:#181818;stroke-width:1.5;"/><rect fill="#E2E2F0" height="30.2969" style="stroke:#181818;stroke-width:0.5;" width="68.332" x="678.8691" y="32"/><rect fill="#E2E2F0" height="30.2969" style="stroke:#181818;stroke-width:0.5;" width="68.332" x="674.8691" y="36"/><text fill="#000000" font-family="sans-serif" font-size="14" lengthAdjust="spacing" textLength="54.332" x="681.8691" y="55.9951">Reports</text><rect fill="#E2E2F0" height="30.2969" style="stroke:#181818;stroke-width:0.5;" width="68.332" x="678.8691" y="447.8906"/><rect fill="#E2E2F0" height="30.2969" style="stroke:#181818;stroke-width:0.5;" width="68.332" x="674.8691" y="451.8906"/><text fill="#000000" font-family="sans-serif" font-size="14" lengthAdjust="spacing" textLength="54.332" x="681.8691" y="471.8857">Reports</text><text fill="#000000" font-family="sans-serif" font-size="14" lengthAdjust="spacing" textLength="64.9277" x="757.2012" y="63.9951">BigQuery</text><path d="M774.665,15 C774.665,5 792.665,5 792.665,5 C792.665,5 810.665,5 810.665,15 L810.665,41 C810.665,51 792.665,51 792.665,51 C792.665,51 774.665,51 774.665,41 L774.665,15 " fill="#E2E2F0" style="stroke:#181818;stroke-width:1.5;"/><path d="M774.665,15 C774.665,25 792.665,25 792.665,25 C792.665,25 810.665,25 810.665,15 " fill="none" style="stroke:#181818;stroke-width:1.5;"/><text fill="#000000" font-family="sans-serif" font-size="14" lengthAdjust="spacing" textLength="64.9277" x="757.2012" y="460.8857">BigQuery</text><path d="M774.665,474.1875 C774.665,464.1875 792.665,464.1875 792.665,464.1875 C792.665,464.1875 810.665,464.1875 810.665,474.1875 L810.665,500.1875 C810.665,510.1875 792.665,510.1875 792.665,510.1875 C792.665,510.1875 774.665,510.1875 774.665,500.1875 L774.665,474.1875 " fill="#E2E2F0" style="stroke:#181818;stroke-width:1.5;"/><path d="M774.665,474.1875 C774.665,484.1875 792.665,484.1875 792.665,484.1875 C792.665,484.1875 810.665,484.1875 810.665,474.1875 " fill="none" style="stroke:#181818;stroke-width:1.5;"/><rect fill="#FFFFFF" height="207.9297" style="stroke:#181818;stroke-width:1.0;" width="10" x="278.2905" y="133.5625"/><rect fill="#FFFFFF" height="29.1328" style="stroke:#181818;stroke-width:1.0;" width="10" x="399.3569" y="162.6953"/><rect fill="#FFFFFF" height="82.3984" style="stroke:#181818;stroke-width:1.0;" width="10" x="399.3569" y="341.4922"/><path d="M5,82.2969 L5,107.2969 L276,107.2969 L276,92.2969 L266,82.2969 L5,82.2969 " fill="#FEFFDD" style="stroke:#181818;stroke-width:0.5;"/><path d="M266,82.2969 L266,92.2969 L276,92.2969 L266,82.2969 " fill="#FEFFDD" style="stroke:#181818;stroke-width:0.5;"/><text fill="#000000" font-family="sans-serif" font-size="13" lengthAdjust="spacing" textLength="250.7261" x="11" y="99.3638">updated on 2nd Tuesday of the month</text><polygon fill="#181818" points="151.6846,129.5625,141.6846,133.5625,151.6846,137.5625,147.6846,133.5625" style="stroke:#181818;stroke-width:1.0;"/><line style="stroke:#181818;stroke-width:1.0;" x1="145.6846" x2="277.2905" y1="133.5625" y2="133.5625"/><text fill="#000000" font-family="sans-serif" font-size="13" lengthAdjust="spacing" textLength="118.606" x="157.6846" y="128.4966">Source CrUX URLs</text><polygon fill="#181818" points="151.6846,158.6953,141.6846,162.6953,151.6846,166.6953,147.6846,162.6953" style="stroke:#181818;stroke-width:1.0;"/><line style="stroke:#181818;stroke-width:1.0;" x1="145.6846" x2="398.3569" y1="162.6953" y2="162.6953"/><text fill="#000000" font-family="sans-serif" font-size="13" lengthAdjust="spacing" textLength="134.6782" x="157.6846" y="157.6294">Source CrUX metrics</text><polygon fill="#181818" points="699.0352,187.8281,709.0352,191.8281,699.0352,195.8281,703.0352,191.8281" style="stroke:#181818;stroke-width:1.0;"/><line style="stroke:#181818;stroke-width:1.0;" x1="404.3569" x2="705.0352" y1="191.8281" y2="191.8281"/><text fill="#000000" font-family="sans-serif" font-size="13" lengthAdjust="spacing" textLength="277.6782" x="411.3569" y="186.7622">Publish Core Web Vitals Technology report</text><path d="M229.3809,206.8281 L512.2148,206.8281 L512.2148,213.9609 L502.2148,223.9609 L229.3809,223.9609 L229.3809,206.8281 " fill="#EEEEEE" style="stroke:#000000;stroke-width:1.5;"/><rect fill="none" height="106.5313" style="stroke:#000000;stroke-width:1.5;" width="618.748" x="229.3809" y="206.8281"/><text fill="#000000" font-family="sans-serif" font-size="13" font-weight="bold" lengthAdjust="spacing" textLength="237.834" x="244.3809" y="219.895">Crawl queue duration &lt; 2 weeks</text><path d="M239.3809,230.9609 L316.0049,230.9609 L316.0049,238.0938 L306.0049,248.0938 L239.3809,248.0938 L239.3809,230.9609 " fill="#EEEEEE" style="stroke:#000000;stroke-width:1.5;"/><rect fill="none" height="75.3984" style="stroke:#000000;stroke-width:1.5;" width="598.748" x="239.3809" y="230.9609"/><text fill="#000000" font-family="sans-serif" font-size="13" font-weight="bold" lengthAdjust="spacing" textLength="31.624" x="254.3809" y="244.0278">loop</text><text fill="#000000" font-family="sans-serif" font-size="11" font-weight="bold" lengthAdjust="spacing" textLength="126.731" x="331.0049" y="243.1714">[per batch of pages]</text><polygon fill="#181818" points="538.5435,265.2266,548.5435,269.2266,538.5435,273.2266,542.5435,269.2266" style="stroke:#181818;stroke-width:1.0;"/><line style="stroke:#181818;stroke-width:1.0;" x1="288.2905" x2="544.5435" y1="269.2266" y2="269.2266"/><text fill="#000000" font-family="sans-serif" font-size="13" lengthAdjust="spacing" textLength="238.2529" x="295.2905" y="264.1606">Save WebPageTest test results JSON</text><polygon fill="#181818" points="780.665,294.3594,790.665,298.3594,780.665,302.3594,784.665,298.3594" style="stroke:#181818;stroke-width:1.0;"/><line style="stroke:#181818;stroke-width:1.0;" x1="288.2905" x2="786.665" y1="298.3594" y2="298.3594"/><text fill="#000000" font-family="sans-serif" font-size="13" lengthAdjust="spacing" textLength="234.165" x="295.2905" y="293.2935">Save test results into staging tables</text><polygon fill="#181818" points="387.3569,337.4922,397.3569,341.4922,387.3569,345.4922,391.3569,341.4922" style="stroke:#181818;stroke-width:1.0;"/><line style="stroke:#181818;stroke-width:1.0;" x1="283.2905" x2="393.3569" y1="341.4922" y2="341.4922"/><text fill="#000000" font-family="sans-serif" font-size="13" lengthAdjust="spacing" textLength="92.0664" x="290.2905" y="336.4263">Crawl finished</text><path d="M340.8691,356.4922 L475.8916,356.4922 L475.8916,363.625 L465.8916,373.625 L340.8691,373.625 L340.8691,356.4922 " fill="#EEEEEE" style="stroke:#000000;stroke-width:1.5;"/><rect fill="none" height="75.3984" style="stroke:#000000;stroke-width:1.5;" width="497.2598" x="340.8691" y="356.4922"/><text fill="#000000" font-family="sans-serif" font-size="13" font-weight="bold" lengthAdjust="spacing" textLength="90.0225" x="355.8691" y="369.5591">within a day</text><polygon fill="#181818" points="780.665,390.7578,790.665,394.7578,780.665,398.7578,784.665,394.7578" style="stroke:#181818;stroke-width:1.0;"/><line style="stroke:#181818;stroke-width:1.0;" x1="409.3569" x2="786.665" y1="394.7578" y2="394.7578"/><text fill="#000000" font-family="sans-serif" font-size="13" lengthAdjust="spacing" textLength="97.1636" x="416.3569" y="389.6919">Publish data to</text><text fill="#000000" font-family="sans-serif" font-size="13" font-weight="bold" lengthAdjust="spacing" textLength="129.1748" x="517.6528" y="389.6919">httparchive.crawl</text><text fill="#000000" font-family="sans-serif" font-size="13" lengthAdjust="spacing" textLength="49.1499" x="650.96" y="389.6919">dataset</text><polygon fill="#181818" points="699.0352,419.8906,709.0352,423.8906,699.0352,427.8906,703.0352,423.8906" style="stroke:#181818;stroke-width:1.0;"/><line style="stroke:#181818;stroke-width:1.0;" x1="404.3569" x2="705.0352" y1="423.8906" y2="423.8906"/><text fill="#000000" font-family="sans-serif" font-size="13" lengthAdjust="spacing" textLength="97.4619" x="411.3569" y="418.8247">Publish reports</text><!--SRC=[RL9DJnin4BtxLppb6AaSE4Q80t125QGaj5mTUzYrQZp67YVAlw_t8zcaoKgxqexdZT_7M2rwepFXCRr_gAYJEEEY3b8BUkSfdTMMBf9tWQ0pPayLUgpCb3rEybpiIZZfPcZi2nWhCsNOUpBYE6IyKUGaUG8_kEPNeRHNweM5m5jAFRK5IgnDPC41jy5YNIXRlGT_Gbh25mTfbHf9_xWVC2ikoGpQyFxsCojTxztMCKTrg8ywYBW6-o99pfmW3ytg13RAM61PDjxb5e-S27zeWzzEjCzOasa3UsxsI7slidGviIVJ92vnu8VlGeLWIzATNRZ3BNP4VtFVwPaZOlLdeyMqdH6n-ZkSTS_anKaWLPpUzjIMzMzDMI3T9r4kNZAULwylbnCEgOpeCuGBmiYY6nSQr1JzI862LTqxPNBSdiKexzE5QXRPGVY98sVf38RidBGkGAE6tjUlspTbCd4-XD8j6IhP-RmLgMjjMhUb6zFTDP_tfvdaloaNoQPnOxksQnbMoVy0]--></g></svg>